<?xml version="1.0" encoding="iso-8859-1"?>
<!-- Generator: Adobe Illustrator 19.0.0, SVG Export Plug-In . SVG Version: 6.00 Build 0)  -->
<svg version="1.1" id="Capa_1" xmlns="http://www.w3.org/2000/svg" xmlns:xlink="http://www.w3.org/1999/xlink" x="0px" y="0px"
	 viewBox="0 0 512 512" style="enable-background:new 0 0 512 512;" xml:space="preserve">
<path style="fill:#FF563C;" d="M508.529,259.471C508.529,398.053,396.393,512,256,512C115.972,512,3.471,398.397,3.471,259.471
	C3.471,120.003,116.532,6.942,256,6.942C395.728,6.942,508.529,120.242,508.529,259.471z"/>
<path style="fill:#6E96DC;" d="M420.514,47.442v403.647C376.45,489.001,319.072,512,256,512c-47.598,0-92.016-13.126-129.907-35.917
	c-12.263-7.358-23.83-15.745-34.607-25.015V47.442C91.486,21.242,112.728,0,138.928,0h234.144
	C399.272,0,420.514,21.242,420.514,47.442z"/>
<path style="fill:#82AAF0;" d="M420.514,47.442v403.647C376.45,489.001,319.072,512,256,512c-47.598,0-92.016-13.126-129.907-35.917
	V47.442c0-1.59,0.083-3.159,0.239-4.708C128.691,18.748,148.925,0,173.535,0h199.537C399.272,0,420.514,21.242,420.514,47.442z"/>
<g>
	<rect x="91.486" y="195.848" style="fill:#506EA0;" width="329.029" height="24.474"/>
	<path style="fill:#506EA0;" d="M135.1,162.127L135.1,162.127c-4.954,0-9.007-4.053-9.007-9.007V83.144
		c0-4.954,4.053-9.007,9.007-9.007l0,0c4.954,0,9.007,4.053,9.007,9.007v69.976C144.106,158.074,140.053,162.127,135.1,162.127z"/>
	<path style="fill:#506EA0;" d="M135.1,343.467L135.1,343.467c-4.954,0-9.007-4.053-9.007-9.007v-69.976
		c0-4.954,4.053-9.007,9.007-9.007l0,0c4.954,0,9.007,4.053,9.007,9.007v69.976C144.106,339.414,140.053,343.467,135.1,343.467z"/>
</g>
<rect x="91.486" y="195.848" style="fill:#415A87;" width="34.607" height="24.474"/>
<path style="fill:#E6E6E6;" d="M338.024,173.924h-85.727c-6.147,0-11.177-5.03-11.177-11.177V41.673
	c0-6.147,5.03-11.177,11.177-11.177h85.727c6.147,0,11.177,5.03,11.177,11.177v121.073
	C349.202,168.894,344.172,173.924,338.024,173.924z"/>
<g>
	<path style="fill:#91B9FF;" d="M259.08,59.766h72.161c4.306,0,7.794-3.49,7.794-7.794s-3.489-7.794-7.794-7.794H259.08
		c-4.306,0-7.794,3.49-7.794,7.794S254.776,59.766,259.08,59.766z"/>
	<path style="fill:#91B9FF;" d="M331.241,77.669H259.08c-4.306,0-7.794,3.49-7.794,7.794s3.489,7.794,7.794,7.794h72.161
		c4.306,0,7.794-3.49,7.794-7.794S335.546,77.669,331.241,77.669z"/>
	<path style="fill:#91B9FF;" d="M331.241,111.161H259.08c-4.306,0-7.794,3.49-7.794,7.794c0,4.305,3.489,7.794,7.794,7.794h72.161
		c4.306,0,7.794-3.49,7.794-7.794C339.036,114.651,335.546,111.161,331.241,111.161z"/>
	<path style="fill:#91B9FF;" d="M331.241,144.653H259.08c-4.306,0-7.794,3.49-7.794,7.794s3.489,7.794,7.794,7.794h72.161
		c4.306,0,7.794-3.49,7.794-7.794S335.546,144.653,331.241,144.653z"/>
</g>
<path style="fill:#FF82A0;" d="M379.259,175.313l-42.474,9.088c-5.771,1.235-11.504-2.477-12.738-8.248l-6.599-30.843
	c-1.235-5.771,2.477-11.504,8.248-12.738l42.474-9.088c5.771-1.235,11.504,2.477,12.738,8.248l6.599,30.843
	C388.742,168.346,385.031,174.079,379.259,175.313z"/>
<path style="fill:#EB5A82;" d="M372.118,169.615l-31.149,6.665c-4.232,0.905-8.436-1.817-9.342-6.048l-4.84-22.619
	c-0.905-4.232,1.817-8.436,6.048-9.342l31.15-6.665c4.232-0.905,8.436,1.817,9.342,6.048l4.84,22.619
	C379.073,164.506,376.351,168.71,372.118,169.615z"/>
<path style="fill:#FFE13C;" d="M225.689,317.46l-42.232-10.152c-5.738-1.379-9.304-7.203-7.925-12.941l7.372-30.667
	c1.379-5.738,7.203-9.304,12.941-7.925l42.232,10.152c5.738,1.379,9.304,7.203,7.925,12.941l-7.372,30.667
	C237.251,315.273,231.427,318.839,225.689,317.46z"/>
<path style="fill:#F2C230;" d="M221.71,309.236l-30.972-7.445c-4.208-1.011-6.824-5.283-5.812-9.49l5.406-22.491
	c1.011-4.208,5.283-6.824,9.49-5.812l30.972,7.445c4.208,1.011,6.824,5.283,5.812,9.49l-5.406,22.491
	C230.189,307.632,225.919,310.247,221.71,309.236z"/>
<path style="fill:#A5E17D;" d="M292.882,419.141l-42.951,6.47c-5.835,0.879-11.33-3.176-12.209-9.012l-4.698-31.189
	c-0.879-5.835,3.176-11.33,9.012-12.209l42.951-6.47c5.835-0.879,11.33,3.176,12.209,9.012l4.698,31.189
	C302.774,412.768,298.719,418.262,292.882,419.141z"/>
<path style="fill:#78BE5A;" d="M286.104,413.016l-31.499,4.745c-4.28,0.644-8.309-2.329-8.954-6.609l-3.446-22.873
	c-0.644-4.28,2.329-8.309,6.609-8.954l31.499-4.745c4.28-0.644,8.309,2.329,8.954,6.609l3.446,22.873
	C293.358,408.342,290.384,412.372,286.104,413.016z"/>
<path style="fill:#FFB69E;" d="M247.934,79.065l-38.947-19.229c-5.292-2.613-7.484-9.08-4.871-14.372l13.963-28.282
	c2.613-5.292,9.08-7.484,14.372-4.871l38.947,19.229c5.292,2.613,7.484,9.08,4.871,14.372l-13.963,28.282
	C259.694,79.484,253.226,81.677,247.934,79.065z"/>
<path style="fill:#FF7251;" d="M245.87,70.164l-28.563-14.102c-3.881-1.916-5.488-6.659-3.572-10.54l10.241-20.741
	c1.916-3.881,6.659-5.488,10.54-3.572l28.563,14.102c3.881,1.916,5.488,6.659,3.572,10.54L256.41,66.592
	C254.494,70.473,249.751,72.081,245.87,70.164z"/>
<path style="fill:#5F55AF;" d="M364.405,310.756c5.343-8.581,6.619-19.519,2.465-29.577c-6.843-16.573-25.83-24.467-42.41-17.621
	c-16.58,6.847-24.464,25.837-17.621,42.41c4.168,10.094,12.838,16.958,22.722,19.244l11.134,37.883
	c2.837,9.655,13.417,14.722,22.719,10.881l11.353-4.688c9.287-3.835,13.214-14.865,8.441-23.705L364.405,310.756z M320.112,295.962
	c0.582-1.401,1.7-2.579,3.204-3.2l22.561-9.317c3.014-1.245,6.487,0.205,7.729,3.211c0.624,1.511,0.575,3.127-0.007,4.528
	c-0.582,1.401-1.69,2.585-3.201,3.208l-22.561,9.317c-3.007,1.242-6.487-0.205-7.732-3.219
	C319.484,298.988,319.53,297.363,320.112,295.962z"/>
<g>
</g>
<g>
</g>
<g>
</g>
<g>
</g>
<g>
</g>
<g>
</g>
<g>
</g>
<g>
</g>
<g>
</g>
<g>
</g>
<g>
</g>
<g>
</g>
<g>
</g>
<g>
</g>
<g>
</g>
</svg>
